<svg id="Calque_1" data-name="Calque 1" xmlns="http://www.w3.org/2000/svg" viewBox="0 0 64 64"><defs><style>.cls-1{fill:#efefef;}</style></defs><title>armorywow</title><path class="cls-1" d="M59.79,19.41a15.5,15.5,0,0,1-1.87-8.86c.2-2-.34-2.72-2.23-2.49A14.59,14.59,0,0,1,46.74,6C37,.71,26.93.68,17.16,5.94A15,15,0,0,1,8,8.07c-1.88-.21-2.62.43-2.39,2.59a17.22,17.22,0,0,1-1.94,9.55A27.59,27.59,0,0,0,4,45C5.18,47.5,6,49.83,5.64,52v1c0,4.46,0,4.54,4.17,4.44a19.09,19.09,0,0,1,9,1.91,29.26,29.26,0,0,0,25.81.16,21.08,21.08,0,0,1,10.06-2.07c3.17.13,3.24,0,3.16-3.41A18,18,0,0,1,59.82,45,27.26,27.26,0,0,0,59.79,19.41Zm-11.12,33C43.59,56.21,37.91,58,30.92,58a26.71,26.71,0,0,1-19.21-8.75,24.84,24.84,0,0,1,.46-34.42A27.68,27.68,0,0,1,51.91,15,24.94,24.94,0,0,1,48.67,52.37Z"/><path class="cls-1" d="M43.5,49H32.76c1.61-3.36-.25-6.27-1-9.35-.57,3.07-2.6,5.91-1.56,9.32H19.39c3-2.4,1.39-5,.83-7.45C18.9,35.63,17.37,29.8,16,23.94c-.5-2.07-1.86-3.62-3.28-5.38H24.32c-2.32,2.82-.4,5.58,0,8.32A71,71,0,0,0,27,37.4l5.2-17.12,4.7,17.29c.78-6.31,3.89-12.33,2.34-19H51.16c-6,3.82-5.47,9.84-6.58,15.21-.79,3.86-1.31,7.78-2,11.66A3.43,3.43,0,0,0,43.5,49Z"/></svg>