<svg id="Calque_1" data-name="Calque 1" xmlns="http://www.w3.org/2000/svg" viewBox="0 0 64 64"><defs><style>.cls-1{fill:#efefef;}</style></defs><title>github</title><path class="cls-1" d="M63,34.31c-.16,1.3-.25,2.62-.49,3.91a30.54,30.54,0,0,1-14,20.67,27.85,27.85,0,0,1-6.32,3,1.54,1.54,0,0,1-2.25-1.59c0-2.68,0-5.36,0-8a8.55,8.55,0,0,0-1.06-4.67c-.26-.42-.59-.79-.87-1.16,1.49-.31,3-.52,4.48-1a12.26,12.26,0,0,0,6.91-4.66A14.66,14.66,0,0,0,51.71,34a17.66,17.66,0,0,0-.08-5.43,11.12,11.12,0,0,0-2.58-5.27.74.74,0,0,1-.18-.84,10.46,10.46,0,0,0-.38-7.43.65.65,0,0,0-.48-.33,5.17,5.17,0,0,0-3,.58c-1.53.71-3,1.52-4.51,2.32a1.39,1.39,0,0,1-1.07.18,28.42,28.42,0,0,0-14.22,0,1.23,1.23,0,0,1-1.07-.17,20,20,0,0,0-6.18-2.81c-1.56-.39-1.82-.21-2.26,1.33a10.4,10.4,0,0,0,.05,6.48.65.65,0,0,1-.11.56c-2.6,2.95-3.18,6.43-2.82,10.2a17.62,17.62,0,0,0,1.7,6.2,10.89,10.89,0,0,0,6.55,5.46,49,49,0,0,0,5.29,1.23l.15,0c-.44.81-.9,1.61-1.33,2.43a2.27,2.27,0,0,0-.26.91c0,.7-.41,1-1,1.12-1.93.52-3.84.85-5.68-.28a6.7,6.7,0,0,1-2.28-2.42A6.55,6.55,0,0,0,12.14,45a6.35,6.35,0,0,0-2-.1c-.4,0-.55.35-.27.69a3.56,3.56,0,0,0,.9.95,8.28,8.28,0,0,1,3.32,4.13,7.2,7.2,0,0,0,1.62,2.62,7,7,0,0,0,4.51,1.68c1.45.06,2.9,0,4.4,0,0,0,0,.16,0,.32,0,1.61.05,3.23.06,4.85s-.95,2.2-2.42,1.7a29.86,29.86,0,0,1-9.8-5.55A31.48,31.48,0,0,1,4.55,46,30.24,30.24,0,0,1,1.62,31.41,29.67,29.67,0,0,1,7.15,15.14,30.52,30.52,0,0,1,35.48,2.25,29.65,29.65,0,0,1,50,7.69,29.91,29.91,0,0,1,61.75,24.14a59.68,59.68,0,0,1,1.13,6l.12.7Z"/></svg>