<svg id="Calque_1" data-name="Calque 1" xmlns="http://www.w3.org/2000/svg" viewBox="0 0 64 64"><defs><style>.cls-1{fill:#f47e20;}</style></defs><title>gm</title><path class="cls-1" d="M1.23,13.24q8.21,8.19,16.41,16.41c.37.38.52.37.86,0Q24.76,21.5,31,13.43c.27-.35.4-.41.7,0Q38,21.48,44.25,29.53c.44.56.44.56,1,0l16-16a1.11,1.11,0,0,1,.52-.42c-.17,1.73-.33,3.43-.5,5.14q-.51,5.1-1,10.21L59.1,39.8c-.33,3.34-.67,6.68-1,10C58,51,58,51,56.85,51q-25.7,0-51.4,0c-.52,0-.68-.14-.73-.65-.31-3.33-.65-6.65-1-10L2.59,28.93q-.51-5-1-10c-.15-1.54-.31-3.07-.47-4.61,0-.09,0-.2-.12-.23v-.47C1.16,13.52.92,13.2,1.23,13.24Z"/><path class="cls-1" d="M1.23,13.24c-.19,0,0,.3-.23.35V13Z"/></svg>