<svg id="Calque_1" data-name="Calque 1" xmlns="http://www.w3.org/2000/svg" viewBox="0 0 64 64"><defs><style>.cls-1{fill:#efefef;}</style></defs><title>home</title><path class="cls-1" d="M25.28,65H6.58c-.26-.31-.17-.67-.17-1q0-15,0-30c0-1.25.09-1.19-1.18-1.19H2.6c-.66,0-.79-.14-.8-.76,0-1.54,0-3.08,0-4.61a1.44,1.44,0,0,1,.64-1.16c2.12-1.76,4.22-3.56,6.33-5.34l12.66-10.7L31.71,1.5c.64-.54.72-.55,1.37,0l12,10.13Q50,15.82,55,20c2.48,2.09,4.94,4.19,7.43,6.27A1.53,1.53,0,0,1,63,27.5c0,1.45,0,2.91,0,4.36,0,.76-.12.88-.87.89H59.19c-.77,0-.81,0-.81.81V64a1.46,1.46,0,0,1-.17,1H39.5a1.39,1.39,0,0,1-.2-1c0-5.3,0-10.6,0-15.9,0-1.09,0-1.09-1.11-1.09H26.47c-1,0-1,0-1,1v16A1.52,1.52,0,0,1,25.28,65Z"/></svg>