<svg xmlns="http://www.w3.org/2000/svg" viewBox="0 0 44.37 64"><defs><style>.cls-1{fill:#efefef;}</style></defs><title>Fichier 1</title><g id="Calque_2" data-name="Calque 2"><g id="Calque_1-2" data-name="Calque 1"><path class="cls-1" d="M22.19,64a.64.64,0,0,1-.45-.19L6.1,48A.59.59,0,0,1,6,47.67L0,26.2a.67.67,0,0,1,.06-.48.63.63,0,0,1,.39-.29L22,19.82a.55.55,0,0,1,.31,0L43.9,25.43a.63.63,0,0,1,.39.29.67.67,0,0,1,.06.48L38.42,47.67a.59.59,0,0,1-.15.28L22.63,63.81A.63.63,0,0,1,22.19,64ZM7.11,47.18l15.08,15.3,15.07-15.3L43,26.48l-20.78-5.4L1.4,26.48l2.41,8.73Z"/><path class="cls-1" d="M22.19,63.79a.42.42,0,0,1-.42-.42V38.09a.42.42,0,1,1,.83,0V63.37A.41.41,0,0,1,22.19,63.79Z"/><path class="cls-1" d="M22.19,38.51a.42.42,0,0,1-.21-.79l21.56-12a.42.42,0,0,1,.41.73L22.39,38.45A.39.39,0,0,1,22.19,38.51Z"/><path class="cls-1" d="M22.19,38.51a.42.42,0,0,1-.21-.06L.42,26.4a.42.42,0,1,1,.41-.73l21.56,12a.42.42,0,0,1-.2.79Z"/><path class="cls-1" d="M25.11,9a2,2,0,0,1-1.83-.05c-.07-.56-.15-1.19-.23-1.9-.12-1-.29-2.61,0-3.09a1.58,1.58,0,0,0,.22-.64.5.5,0,0,0,0-.19c0-.25,0-2.89-1-3.1a.57.57,0,0,0-.23,0c-.94.21-1,2.9-1,3.1s0,.15,0,.2a2.36,2.36,0,0,0,0,.31.88.88,0,0,0,.18.32c.37.45,0,3.09,0,3.09-.06.45-.14,1.1-.2,1.9a2.51,2.51,0,0,1-.95.23,2.44,2.44,0,0,1-1-.18c-1.07.17-1.85.41-1.84.64s.79.43,1.84.54h0a3,3,0,0,1,1-.17,3.32,3.32,0,0,1,1,.17,1.8,1.8,0,0,1-.6,1.35q-.42,8.1-.83,16.21l2.35,1,2.41-.94q-.37-8.11-.76-16.23a1.81,1.81,0,0,1-.61-1.35,3.59,3.59,0,0,1,1-.14,3.31,3.31,0,0,1,1,.14h0S27,10,27,9.56,25.28,9,25.11,9ZM22.19,3c-.25,0-.46-.38-.46-.84s.21-.83.46-.83.47.37.47.83S22.45,3,22.19,3Z"/></g></g></svg>