<svg xmlns="http://www.w3.org/2000/svg" xmlns:xlink="http://www.w3.org/1999/xlink" viewBox="0 0 43.48 62.72"><defs><style>.cls-1{fill:url(#Dégradé_sans_nom_10);}.cls-2{fill:url(#Dégradé_sans_nom_10-2);}.cls-3{fill:url(#Dégradé_sans_nom_10-3);}.cls-4{fill:url(#Dégradé_sans_nom_10-4);}.cls-5{fill:url(#Dégradé_sans_nom_3);}</style><linearGradient id="Dégradé_sans_nom_10" x1="21.74" y1="62.72" x2="21.74" y2="19.4" gradientUnits="userSpaceOnUse"><stop offset="0" stop-color="#a4c7e3"/><stop offset="0.16" stop-color="#9fc1dd"/><stop offset="0.39" stop-color="#8fb1cb"/><stop offset="0.65" stop-color="#7696af"/><stop offset="0.93" stop-color="#537087"/><stop offset="1" stop-color="#49667c"/></linearGradient><linearGradient id="Dégradé_sans_nom_10-2" x1="21.74" y1="62.52" x2="21.74" y2="36.92" xlink:href="#Dégradé_sans_nom_10"/><linearGradient id="Dégradé_sans_nom_10-3" x1="32.31" y1="37.74" x2="32.31" y2="25.1" xlink:href="#Dégradé_sans_nom_10"/><linearGradient id="Dégradé_sans_nom_10-4" x1="11.18" y1="37.74" x2="11.18" y2="25.1" xlink:href="#Dégradé_sans_nom_10"/><linearGradient id="Dégradé_sans_nom_3" x1="21.74" y1="28.11" x2="21.74" gradientUnits="userSpaceOnUse"><stop offset="0" stop-color="#ff9732"/><stop offset="0.53" stop-color="#ff8915"/><stop offset="1" stop-color="#ff7e00"/></linearGradient></defs><title>logo_theory_sticky</title><g id="Calque_2" data-name="Calque 2"><g id="Calque_1-2" data-name="Calque 1"><path class="cls-1" d="M21.74,62.72a.67.67,0,0,1-.44-.18L6,47a.72.72,0,0,1-.15-.27L0,25.68a.64.64,0,0,1,.06-.47.59.59,0,0,1,.38-.29l21.13-5.5a.81.81,0,0,1,.31,0L43,24.92a.59.59,0,0,1,.38.29.59.59,0,0,1,.06.47l-5.8,21a.74.74,0,0,1-.16.27L22.18,62.54A.65.65,0,0,1,21.74,62.72ZM7,46.24l14.77,15,14.77-15L42.11,26,21.74,20.66,1.38,26,3.73,34.5Z"/><path class="cls-2" d="M21.74,62.52a.42.42,0,0,1-.41-.41V37.33a.41.41,0,0,1,.41-.41.41.41,0,0,1,.41.41V62.11A.41.41,0,0,1,21.74,62.52Z"/><path class="cls-3" d="M21.74,37.74a.43.43,0,0,1-.36-.21.41.41,0,0,1,.16-.56L42.67,25.16a.42.42,0,0,1,.56.15.41.41,0,0,1-.16.56L21.94,37.69A.46.46,0,0,1,21.74,37.74Z"/><path class="cls-4" d="M21.74,37.74a.49.49,0,0,1-.2-.05L.42,25.87a.41.41,0,0,1-.16-.56.42.42,0,0,1,.56-.15L21.94,37a.41.41,0,0,1,.16.56A.42.42,0,0,1,21.74,37.74Z"/><path class="cls-5" d="M24.61,8.8a1.93,1.93,0,0,1-.94.2,2,2,0,0,1-.85-.24c-.07-.55-.15-1.18-.23-1.87a7.59,7.59,0,0,1,0-3,1.57,1.57,0,0,0,.22-.62s0-.11,0-.2c0-.24,0-2.82-.93-3a.62.62,0,0,0-.24,0c-.91.21-.94,2.84-.93,3a1.72,1.72,0,0,1,0,.2c0,.12,0,.22.05.31a.94.94,0,0,0,.17.31c.37.45,0,3,0,3-.06.44-.14,1.07-.2,1.86a2.39,2.39,0,0,1-.93.23,2.45,2.45,0,0,1-1-.18c-1,.16-1.82.41-1.81.63s.77.42,1.81.53h0a2.82,2.82,0,0,1,1.93,0,1.77,1.77,0,0,1-.59,1.32l-.81,15.88,2.29.95L24,27.19l-.75-15.91A1.77,1.77,0,0,1,22.68,10a3.09,3.09,0,0,1,1-.14,3.24,3.24,0,0,1,.95.14h0s1.88-.18,1.85-.59S24.78,8.82,24.61,8.8ZM21.75,2.93c-.25,0-.45-.37-.45-.82s.2-.81.45-.81.45.36.45.81S22,2.93,21.75,2.93Z"/></g></g></svg>