<svg id="Calque_1" data-name="Calque 1" xmlns="http://www.w3.org/2000/svg" viewBox="0 0 64 64"><defs><style>.cls-1{fill:#efefef;}</style></defs><title>officier</title><path class="cls-1" d="M2.23,13.24q8,8,16.08,16.08c.37.38.52.37.84-.05L31.44,13.43c.27-.35.4-.4.69,0q6.12,7.92,12.27,15.8c.43.55.42.55.94,0q7.86-7.86,15.72-15.72c.14-.14.25-.34.51-.4-.17,1.69-.33,3.36-.5,5-.33,3.34-.66,6.67-1,10q-.55,5.55-1.12,11.1c-.32,3.28-.66,6.56-1,9.84-.11,1.13-.08,1.13-1.24,1.13H6.37c-.51,0-.68-.13-.72-.63-.31-3.26-.64-6.52-1-9.78q-.55-5.61-1.12-11.22c-.33-3.28-.65-6.56-1-9.83-.15-1.51-.31-3-.46-4.52,0-.09,0-.19-.12-.22v-.47C2.15,13.52,1.92,13.2,2.23,13.24Z"/><path class="cls-1" d="M2.23,13.24c-.19,0,0,.3-.23.34V13Z"/></svg>