<svg id="Calque_1" data-name="Calque 1" xmlns="http://www.w3.org/2000/svg" viewBox="0 0 64 64"><defs><style>.cls-1{fill:#efefef;}</style></defs><title>progress</title><path class="cls-1" d="M32.23,63Q21.09,56.91,9.93,50.82a2,2,0,0,1-1.14-2Q8.82,26,8.8,3.2a1.74,1.74,0,0,1,2-2q21.8,0,43.57,0a1.83,1.83,0,0,1,2,2.05q0,21.75,0,43.5c0,.74,0,1.49,0,2.23a1.89,1.89,0,0,1-1.13,1.88L41.05,58.64q-4,2.19-8,4.36ZM12.14,4.59v.65q0,21.18,0,42.36a.91.91,0,0,0,.54.93q9.71,5.3,19.39,10.62a1,1,0,0,0,1.09,0q9.63-5.3,19.28-10.56a1,1,0,0,0,.63-1.07q0-21.09,0-42.17V4.59Z"/><path class="cls-1" d="M46.44,36.85v5.67c0,.7.2,1.54-.11,2.06s-1.13.76-1.75,1.09c-3.82,2.09-7.65,4.17-11.46,6.27a.89.89,0,0,1-1,0q-6.44-3.54-12.9-7a.83.83,0,0,1-.49-.84c0-2.19,0-4.38,0-6.58,0-.17,0-.35,0-.63l.73.35c4.14,2.18,8.28,4.34,12.41,6.54a1.26,1.26,0,0,0,1.37,0c4.14-2.21,8.3-4.39,12.45-6.58Z"/><path class="cls-1" d="M46.44,25.26V27c0,1.85,0,3.7,0,5.55a.78.78,0,0,1-.46.8c-4.33,2.34-8.64,4.71-13,7a1,1,0,0,1-.81,0q-6.54-3.54-13.06-7.12a.86.86,0,0,1-.39-.57c0-2.38,0-4.75,0-7.12a1.65,1.65,0,0,1,.05-.3l.68.34q6.29,3.3,12.57,6.62a1,1,0,0,0,1.1,0c4.17-2.22,8.35-4.41,12.52-6.61Z"/><path class="cls-1" d="M30.62,14.75l2.15-6.59,2.14,6.57h6.64l.05.11-5.38,3.89,2.12,6.54-5.57-4-5.55,4c.19-.63.32-1.08.47-1.52.49-1.51,1-3,1.49-4.52a.58.58,0,0,0-.27-.78c-1.52-1.07-3-2.18-4.54-3.28-.15-.1-.28-.21-.52-.4Z"/></svg>