<svg id="Calque_1" data-name="Calque 1" xmlns="http://www.w3.org/2000/svg" viewBox="0 0 64 64"><defs><style>.cls-1{fill:#efefef;}</style></defs><title>twitter</title><path class="cls-1" d="M19.5,46c-6-.64-10.88-4.33-11.76-8.84A13,13,0,0,0,13.3,37l-.76-.2A12.75,12.75,0,0,1,3.21,24.88c0-.58.19-.47.54-.3a12.1,12.1,0,0,0,5,1.3c-.07-.28-.29-.36-.45-.48a12.74,12.74,0,0,1-3.49-16c.26-.5.38-.26.59,0a36,36,0,0,0,12.5,9.57,36.41,36.41,0,0,0,13,3.3c.4,0,.42-.11.36-.45A12.7,12.7,0,0,1,52.27,10a1.5,1.5,0,0,0,1.63.43,27.19,27.19,0,0,0,6.42-2.48A1,1,0,0,1,61,7.69a13.14,13.14,0,0,1-5.18,6.73,8.79,8.79,0,0,0,2.28-.33c.74-.18,1.48-.38,2.21-.61s1.46-.5,2.35-.82a21.4,21.4,0,0,1-3,3.67,20.72,20.72,0,0,1-2.83,2.46.9.9,0,0,0-.42.85C56.46,32.05,51.72,42.22,42,49.93a33,33,0,0,1-16.63,6.74A37,37,0,0,1,7.82,54.81a34.85,34.85,0,0,1-7-3.49A26.05,26.05,0,0,0,19.5,46Z"/></svg>