<svg id="Calque_1" data-name="Calque 1" xmlns="http://www.w3.org/2000/svg" viewBox="0 0 64 64"><defs><style>.cls-1{fill:#efefef;}</style></defs><title>twitch</title><path class="cls-1" d="M6.15.09H62.06q0,19.14,0,38.26a1.47,1.47,0,0,1-.42,1.1Q54,47.54,46.42,55.62a1.38,1.38,0,0,1-.91.37q-5.35,0-10.73,0a1.44,1.44,0,0,0-1.14.46q-3.55,3.6-7.16,7.15a1.51,1.51,0,0,1-.91.37c-2.14,0-4.28,0-6.42,0h-1V56H2.15V55.4q0-21.43,0-42.87a2.86,2.86,0,0,1,.15-.92Q4.22,5.85,6.15.09Zm18,54.17c.28-.19.45-.29.61-.41,2.47-1.8,4.95-3.59,7.41-5.4A2.1,2.1,0,0,1,33.49,48c4.26,0,8.52,0,12.79,0a1.25,1.25,0,0,0,1-.43Q52.44,42,57.64,36.51a1.44,1.44,0,0,0,.44-1.1q0-15.31,0-30.63V4.13H10.19V48H24.1Z"/><path class="cls-1" d="M34.06,32H30.14V16.12h3.92Z"/><path class="cls-1" d="M42.13,16.1h3.92V32H42.13Z"/></svg>