<svg id="Calque_1" data-name="Calque 1" xmlns="http://www.w3.org/2000/svg" viewBox="0 0 64 64"><defs><style>.cls-1{fill:#efefef;}</style></defs><title>user</title><path class="cls-1" d="M33.67,0c.89.17,1.79.31,2.67.52a9.2,9.2,0,0,1,7.12,6.39c1.62,5.25,1.88,10.59-.23,15.8a13.19,13.19,0,0,1-6.87,7.48C32,32.13,28,31.4,24.41,28.38A15.39,15.39,0,0,1,19.1,17.86,25.6,25.6,0,0,1,20,7.38C21.28,3.14,24.28.89,28.59.25,29,.18,29.48.08,29.92,0Z"/><path class="cls-1" d="M31.82,64a64.29,64.29,0,0,1-14.64-1.76,21.2,21.2,0,0,1-7.81-3.58l0,0a4.07,4.07,0,0,1-1.87-3.9c.29-3.24.19-6.52.78-9.74a13.5,13.5,0,0,1,3.21-7.16,13,13,0,0,1,4.47-3,40.24,40.24,0,0,1,8.56-2.36.63.63,0,0,1,.48.16A9.66,9.66,0,0,0,32,35.08,9.22,9.22,0,0,0,38.18,33a1.71,1.71,0,0,1,1.71-.39,41,41,0,0,1,7.47,2.09,12,12,0,0,1,6.31,5.2,14.3,14.3,0,0,1,1.78,5.73c.31,3.45.44,6.92.66,10.38a1.69,1.69,0,0,1-.49,1.28A13.73,13.73,0,0,1,50.2,61a33.55,33.55,0,0,1-9.81,2.39C37.54,63.63,34.68,63.79,31.82,64Z"/></svg>