<svg id="Calque_1" data-name="Calque 1" xmlns="http://www.w3.org/2000/svg" viewBox="0 0 64 64"><defs><style>.cls-1{fill:#efefef;}</style></defs><title>youtube</title><path class="cls-1" d="M-.24,36.51V29c0-.22.08-.45.1-.67.14-1.81.22-3.63.42-5.43a21.55,21.55,0,0,1,2.07-7.7,6.54,6.54,0,0,1,5.43-3.91c2.1-.18,4.21-.37,6.31-.38q15.39-.11,30.79-.1c3.46,0,6.93.22,10.39.38a6.91,6.91,0,0,1,6.23,4.24,23.74,23.74,0,0,1,2.07,8.34,92.42,92.42,0,0,1-.12,19,21,21,0,0,1-2.09,7.62,6.59,6.59,0,0,1-4.89,3.8,21.36,21.36,0,0,1-2.87.32c-4.47.12-8.94.3-13.41.28-10,0-20.06-.17-30.09-.29a10.57,10.57,0,0,1-4.76-1A7.94,7.94,0,0,1,1.76,49,29.61,29.61,0,0,1,0,40.06C-.08,38.88-.15,37.7-.24,36.51Zm24.1,8.27,20-12-20-12Z"/></svg>